<?xml version="1.0" encoding="utf-8"?>
<!-- Generator: Adobe Illustrator 23.0.6, SVG Export Plug-In . SVG Version: 6.00 Build 0)  -->
<svg version="1.1" id="Layer_1" xmlns="http://www.w3.org/2000/svg" xmlns:xlink="http://www.w3.org/1999/xlink" x="0px" y="0px"
	 viewBox="0 0 512 512" style="enable-background:new 0 0 512 512;" xml:space="preserve">
<style type="text/css">
	.st0{fill:#D52B1E;}
	.st1{fill:#009B48;}
	.st2{fill:#FFFFFF;}
</style>
<g>
	<path class="st0" d="M0,0v512h512V0H0z"/>
</g>
<g>
	<path d="M0,0l512,512 M512,0C524-11.4,0,512,0,512"/>
	<path class="st1" d="M18.7,530.7l-37.5-37.5c65.4-65.3,153-152.9,237.3-237.2L-18.7,18.7l37.5-37.5l237.4,237.4
		C380.1,94.7,487.9-13.1,492.9-18.3c-9.8,10.2-9.5,26.7,0.6,36.8c10.1,10.1,26.6,10.4,36.9,0.6l-36.6-38.3
		c10.7-10.2,27.2-10,37.5,0.5c9.9,10.2,10.1,26.3,0.3,36.7c-0.1,0.1-0.3,0.3-0.6,0.6c-0.3,0.3-0.7,0.7-1.2,1.3c-1,1-2.4,2.5-4.3,4.4
		c-3.7,3.8-9.3,9.3-16.3,16.3c-14,14-34,34.1-58,58.1c-43.3,43.4-99.8,99.8-157.4,157.4l237.2,237.2l-37.5,37.5L256.1,293.6
		C134.6,415,18.7,530.7,18.7,530.7z"/>
</g>
<g>
	<path d="M256-0.1v512 M0,255.9h512"/>
	<polygon class="st2" points="282.5,511.9 229.5,511.9 229.5,282.4 0,282.4 0,229.4 229.5,229.4 229.5,-0.1 282.5,-0.1 282.5,229.4 
		512,229.4 512,282.4 282.5,282.4 	"/>
</g>
</svg>
